<svg width="250" height="250" viewBox="0 0 250 250" fill="none" xmlns="http://www.w3.org/2000/svg">
<g clip-path="url(#clip0_349_348)">
<path d="M125.221 2.55377C152.392 2.56988 178.722 12.3506 199.751 30.239C220.78 48.1274 235.215 73.0236 240.611 100.71C246.007 128.397 242.031 157.171 229.358 182.16C216.685 207.148 196.093 226.813 171.072 237.824C142.291 250.466 109.859 250.703 80.9105 238.484C51.9617 226.264 28.8675 202.589 16.7083 172.666C4.54903 142.743 4.32082 109.024 16.0738 78.9263C27.8268 48.8285 50.5983 24.8177 79.3788 12.1758C93.8839 5.7935 109.479 2.52081 125.229 2.55377H125.221ZM125.229 0C58.828 0 5 55.9645 5 125.001C5 194.038 58.8198 250 125.221 250C191.623 250 245.448 194.036 245.448 125.001C245.448 55.9673 191.62 0 125.221 0H125.229Z" fill="#DB6F15"/>
<path d="M125.068 9.55377C152.4 9.59119 178.744 20.1817 198.991 39.271C219.237 58.3602 231.943 84.5875 234.643 112.865C237.343 141.143 229.845 169.456 213.603 192.311C197.362 215.166 173.534 230.935 146.743 236.558C119.951 242.182 92.1059 237.259 68.6079 222.746C45.1098 208.232 27.6341 185.161 19.5706 158.009C11.5072 130.857 13.4308 101.559 24.9684 75.7986C36.506 50.0378 56.835 29.6505 82.0121 18.5913C95.6331 12.5979 110.277 9.52405 125.068 9.55377ZM125.068 7C62.6212 7 12 59.6304 12 124.556C12 189.481 62.6212 242.109 125.068 242.109C187.515 242.109 238.133 189.478 238.133 124.556C238.133 59.6332 187.526 7 125.068 7Z" fill="#DB6F15"/>
<path d="M208.739 50.0958L148.522 131.785C147.774 132.804 146.683 133.492 145.468 133.709L111.424 139.739C106.91 140.539 103.755 134.983 106.56 131.178L191.477 15.9945C193.887 12.7256 198.788 13.628 200.136 17.5835L209.481 45.0564C209.769 45.8945 209.852 46.7939 209.722 47.6736C209.593 48.5532 209.255 49.3856 208.739 50.0958Z" fill="#DB6F15" stroke="white" stroke-miterlimit="10"/>
<path d="M74.0299 173.74L109.829 124.999C111.687 122.465 111.245 119.571 108.827 118.445L2.20839 68.7427C-3.21998 66.2144 2.31483 57.7813 8.50738 59.149L168.894 94.5272C172.06 95.2253 172.988 98.4998 170.865 101.405L135.098 150.106C132.964 153.011 133.903 156.286 137.069 156.987L246.024 181.021C252.353 182.417 248.292 191.483 241.529 191.057L76.8356 180.734C73.0938 180.501 71.6719 176.949 74.0299 173.74Z" fill="#DB6F15" stroke="white" stroke-miterlimit="10"/>
</g>
<defs>
<clipPath id="clip0_349_348">
<rect width="250" height="250" fill="white"/>
</clipPath>
</defs>
</svg>
